<?xml version="1.0" encoding="UTF-8"?>
<svg width="1024" height="1024" viewBox="0 0 1024 1024" xmlns="http://www.w3.org/2000/svg">
  <defs>
    <linearGradient id="borderGrad" x1="0%" y1="0%" x2="100%" y2="100%">
      <stop offset="0%" stop-color="#23D5C5"/>
      <stop offset="50%" stop-color="#4A8DFF"/>
      <stop offset="100%" stop-color="#7A2FFF"/>
    </linearGradient>
    <linearGradient id="zGrad" x1="0%" y1="0%" x2="100%" y2="100%">
      <stop offset="0%" stop-color="#23D5C5"/>
      <stop offset="100%" stop-color="#4A5BFF"/>
    </linearGradient>
  </defs>

  <rect x="64" y="64" width="896" height="896" rx="136" fill="url(#borderGrad)"/>
  <rect x="92" y="92" width="840" height="840" rx="118" fill="#1C1426"/>

  <g transform="translate(512 512) scale(1.12) translate(-512 -512)">
    <path
      d="M340 290
         H735
         Q775 290 750 335
         L470 635
         H740
         Q780 635 755 675
         L710 745
         Q695 770 665 770
         H305
         Q245 770 285 715
         L570 410
         H325
         Q290 410 305 380
         L340 310
         Q350 290 340 290 Z"
      fill="url(#zGrad)"/>
  </g>
</svg>
